<svg xmlns="http://www.w3.org/2000/svg" xmlns:xlink="http://www.w3.org/1999/xlink" version="1.1" class="marks" width="810" height="456" viewBox="0 0 810 456"><rect width="810" height="456" fill="white"/><g fill="none" stroke-miterlimit="10" transform="translate(42,68)"><g class="mark-group role-frame root" role="graphics-object" aria-roledescription="group mark container"><g transform="translate(0,0)"><path class="background" aria-hidden="true" d="M0,0h0v350h0Z"/><g><g class="mark-group role-scope concat_0_group" role="graphics-object" aria-roledescription="group mark container"><g transform="translate(0,0)"><path class="background" aria-hidden="true" d="M0.5,0.5h350v350h-350Z"/><g><g class="mark-group role-axis" aria-hidden="true"><g transform="translate(0.5,350.5)"><path class="background" aria-hidden="true" d="M0,0h0v0h0Z" pointer-events="none"/><g><g class="mark-rule role-axis-grid" pointer-events="none"><line transform="translate(0,-350)" x2="0" y2="350" stroke="#ddd" stroke-width="1" opacity="1"/><line transform="translate(50,-350)" x2="0" y2="350" stroke="#ddd" stroke-width="1" opacity="1"/><line transform="translate(100,-350)" x2="0" y2="350" stroke="#ddd" stroke-width="1" opacity="1"/><line transform="translate(150,-350)" x2="0" y2="350" stroke="#ddd" stroke-width="1" opacity="1"/><line transform="translate(200,-350)" x2="0" y2="350" stroke="#ddd" stroke-width="1" opacity="1"/><line transform="translate(250,-350)" x2="0" y2="350" stroke="#ddd" stroke-width="1" opacity="1"/><line transform="translate(300,-350)" x2="0" y2="350" stroke="#ddd" stroke-width="1" opacity="1"/><line transform="translate(350,-350)" x2="0" y2="350" stroke="#ddd" stroke-width="1" opacity="1"/></g></g><path class="foreground" aria-hidden="true" d="" pointer-events="none" display="none"/></g></g><g class="mark-group role-axis" aria-hidden="true"><g transform="translate(0.5,0.5)"><path class="background" aria-hidden="true" d="M0,0h0v0h0Z" pointer-events="none"/><g><g class="mark-rule role-axis-grid" pointer-events="none"><line transform="translate(0,350)" x2="350" y2="0" stroke="#ddd" stroke-width="1" opacity="1"/><line transform="translate(0,300)" x2="350" y2="0" stroke="#ddd" stroke-width="1" opacity="1"/><line transform="translate(0,250)" x2="350" y2="0" stroke="#ddd" stroke-width="1" opacity="1"/><line transform="translate(0,200)" x2="350" y2="0" stroke="#ddd" stroke-width="1" opacity="1"/><line transform="translate(0,150)" x2="350" y2="0" stroke="#ddd" stroke-width="1" opacity="1"/><line transform="translate(0,100)" x2="350" y2="0" stroke="#ddd" stroke-width="1" opacity="1"/><line transform="translate(0,50)" x2="350" y2="0" stroke="#ddd" stroke-width="1" opacity="1"/><line transform="translate(0,0)" x2="350" y2="0" stroke="#ddd" stroke-width="1" opacity="1"/></g></g><path class="foreground" aria-hidden="true" d="" pointer-events="none" display="none"/></g></g><g class="mark-group role-axis" role="graphics-symbol" aria-roledescription="axis" aria-label="X-axis titled 'Média de Gols em Casa' for a linear scale with values from 0.0 to 3.5"><g transform="translate(0.5,350.5)"><path class="background" aria-hidden="true" d="M0,0h0v0h0Z" pointer-events="none"/><g><g class="mark-rule role-axis-tick" pointer-events="none"><line transform="translate(0,0)" x2="0" y2="5" stroke="#888" stroke-width="1" opacity="1"/><line transform="translate(50,0)" x2="0" y2="5" stroke="#888" stroke-width="1" opacity="1"/><line transform="translate(100,0)" x2="0" y2="5" stroke="#888" stroke-width="1" opacity="1"/><line transform="translate(150,0)" x2="0" y2="5" stroke="#888" stroke-width="1" opacity="1"/><line transform="translate(200,0)" x2="0" y2="5" stroke="#888" stroke-width="1" opacity="1"/><line transform="translate(250,0)" x2="0" y2="5" stroke="#888" stroke-width="1" opacity="1"/><line transform="translate(300,0)" x2="0" y2="5" stroke="#888" stroke-width="1" opacity="1"/><line transform="translate(350,0)" x2="0" y2="5" stroke="#888" stroke-width="1" opacity="1"/></g><g class="mark-text role-axis-label" pointer-events="none"><text text-anchor="start" transform="translate(0,15)" font-family="sans-serif" font-size="10px" fill="#000" opacity="1">0.0</text><text text-anchor="middle" transform="translate(50,15)" font-family="sans-serif" font-size="10px" fill="#000" opacity="1">0.5</text><text text-anchor="middle" transform="translate(100,15)" font-family="sans-serif" font-size="10px" fill="#000" opacity="1">1.0</text><text text-anchor="middle" transform="translate(150,15)" font-family="sans-serif" font-size="10px" fill="#000" opacity="1">1.5</text><text text-anchor="middle" transform="translate(200,15)" font-family="sans-serif" font-size="10px" fill="#000" opacity="1">2.0</text><text text-anchor="middle" transform="translate(250,15)" font-family="sans-serif" font-size="10px" fill="#000" opacity="1">2.5</text><text text-anchor="middle" transform="translate(300,15)" font-family="sans-serif" font-size="10px" fill="#000" opacity="1">3.0</text><text text-anchor="end" transform="translate(350,15)" font-family="sans-serif" font-size="10px" fill="#000" opacity="1">3.5</text></g><g class="mark-rule role-axis-domain" pointer-events="none"><line transform="translate(0,0)" x2="350" y2="0" stroke="#888" stroke-width="1" opacity="1"/></g><g class="mark-text role-axis-title" pointer-events="none"><text text-anchor="middle" transform="translate(175,30)" font-family="sans-serif" font-size="11px" font-weight="bold" fill="#000" opacity="1">Média de Gols em Casa</text></g></g><path class="foreground" aria-hidden="true" d="" pointer-events="none" display="none"/></g></g><g class="mark-group role-axis" role="graphics-symbol" aria-roledescription="axis" aria-label="Y-axis titled 'Média de Gols Fora' for a linear scale with values from 0.0 to 3.5"><g transform="translate(0.5,0.5)"><path class="background" aria-hidden="true" d="M0,0h0v0h0Z" pointer-events="none"/><g><g class="mark-rule role-axis-tick" pointer-events="none"><line transform="translate(0,350)" x2="-5" y2="0" stroke="#888" stroke-width="1" opacity="1"/><line transform="translate(0,300)" x2="-5" y2="0" stroke="#888" stroke-width="1" opacity="1"/><line transform="translate(0,250)" x2="-5" y2="0" stroke="#888" stroke-width="1" opacity="1"/><line transform="translate(0,200)" x2="-5" y2="0" stroke="#888" stroke-width="1" opacity="1"/><line transform="translate(0,150)" x2="-5" y2="0" stroke="#888" stroke-width="1" opacity="1"/><line transform="translate(0,100)" x2="-5" y2="0" stroke="#888" stroke-width="1" opacity="1"/><line transform="translate(0,50)" x2="-5" y2="0" stroke="#888" stroke-width="1" opacity="1"/><line transform="translate(0,0)" x2="-5" y2="0" stroke="#888" stroke-width="1" opacity="1"/></g><g class="mark-text role-axis-label" pointer-events="none"><text text-anchor="end" transform="translate(-7,353)" font-family="sans-serif" font-size="10px" fill="#000" opacity="1">0.0</text><text text-anchor="end" transform="translate(-7,303)" font-family="sans-serif" font-size="10px" fill="#000" opacity="1">0.5</text><text text-anchor="end" transform="translate(-7,253)" font-family="sans-serif" font-size="10px" fill="#000" opacity="1">1.0</text><text text-anchor="end" transform="translate(-7,203)" font-family="sans-serif" font-size="10px" fill="#000" opacity="1">1.5</text><text text-anchor="end" transform="translate(-7,153)" font-family="sans-serif" font-size="10px" fill="#000" opacity="1">2.0</text><text text-anchor="end" transform="translate(-7,103)" font-family="sans-serif" font-size="10px" fill="#000" opacity="1">2.5</text><text text-anchor="end" transform="translate(-7,53.000000000000014)" font-family="sans-serif" font-size="10px" fill="#000" opacity="1">3.0</text><text text-anchor="end" transform="translate(-7,3)" font-family="sans-serif" font-size="10px" fill="#000" opacity="1">3.5</text></g><g class="mark-rule role-axis-domain" pointer-events="none"><line transform="translate(0,350)" x2="0" y2="-350" stroke="#888" stroke-width="1" opacity="1"/></g><g class="mark-text role-axis-title" pointer-events="none"><text text-anchor="middle" transform="translate(-24.9013671875,175) rotate(-90) translate(0,-2)" font-family="sans-serif" font-size="11px" font-weight="bold" fill="#000" opacity="1">Média de Gols Fora</text></g></g><path class="foreground" aria-hidden="true" d="" pointer-events="none" display="none"/></g></g><g class="mark-symbol role-mark view_d817c1069689579d_0_marks" role="graphics-object" aria-roledescription="symbol mark container"><path aria-label="Média de Gols em Casa: 2.21052631579; Média de Gols Fora: 1.63157894737; Clube: Arsenal; Contexto: 18/19 (Com Torcida); Média Casa: 2.21; Média Fora: 1.63" role="graphics-symbol" aria-roledescription="circle" transform="translate(221.0526315789474,186.8421052631579)" d="M5,0A5,5,0,1,1,-5,0A5,5,0,1,1,5,0" fill="#1f77b4" stroke="black" stroke-width="0.5" opacity="0.9"/><path aria-label="Média de Gols em Casa: 1.57894736842; Média de Gols Fora: 1.36842105263; Clube: Bournemouth; Contexto: 18/19 (Com Torcida); Média Casa: 1.58; Média Fora: 1.37" role="graphics-symbol" aria-roledescription="circle" transform="translate(157.89473684210526,213.1578947368421)" d="M5,0A5,5,0,1,1,-5,0A5,5,0,1,1,5,0" fill="#1f77b4" stroke="black" stroke-width="0.5" opacity="0.9"/><path aria-label="Média de Gols em Casa: 1; Média de Gols Fora: 0.842105263158; Clube: Brighton; Contexto: 18/19 (Com Torcida); Média Casa: 1.00; Média Fora: 0.84" role="graphics-symbol" aria-roledescription="circle" transform="translate(100,265.7894736842105)" d="M5,0A5,5,0,1,1,-5,0A5,5,0,1,1,5,0" fill="#1f77b4" stroke="black" stroke-width="0.5" opacity="0.9"/><path aria-label="Média de Gols em Casa: 1.26315789474; Média de Gols Fora: 1.10526315789; Clube: Burnley; Contexto: 18/19 (Com Torcida); Média Casa: 1.26; Média Fora: 1.11" role="graphics-symbol" aria-roledescription="circle" transform="translate(126.3157894736842,239.47368421052627)" d="M5,0A5,5,0,1,1,-5,0A5,5,0,1,1,5,0" fill="#1f77b4" stroke="black" stroke-width="0.5" opacity="0.9"/><path aria-label="Média de Gols em Casa: 1.10526315789; Média de Gols Fora: 0.684210526316; Clube: Cardiff; Contexto: 18/19 (Com Torcida); Média Casa: 1.11; Média Fora: 0.68" role="graphics-symbol" aria-roledescription="circle" transform="translate(110.5263157894737,281.57894736842104)" d="M5,0A5,5,0,1,1,-5,0A5,5,0,1,1,5,0" fill="#1f77b4" stroke="black" stroke-width="0.5" opacity="0.9"/><path aria-label="Média de Gols em Casa: 2.05263157895; Média de Gols Fora: 1.26315789474; Clube: Chelsea; Contexto: 18/19 (Com Torcida); Média Casa: 2.05; Média Fora: 1.26" role="graphics-symbol" aria-roledescription="circle" transform="translate(205.26315789473688,223.6842105263158)" d="M5,0A5,5,0,1,1,-5,0A5,5,0,1,1,5,0" fill="#1f77b4" stroke="black" stroke-width="0.5" opacity="0.9"/><path aria-label="Média de Gols em Casa: 1; Média de Gols Fora: 1.68421052632; Clube: Crystal Palace; Contexto: 18/19 (Com Torcida); Média Casa: 1.00; Média Fora: 1.68" role="graphics-symbol" aria-roledescription="circle" transform="translate(100,181.57894736842107)" d="M5,0A5,5,0,1,1,-5,0A5,5,0,1,1,5,0" fill="#1f77b4" stroke="black" stroke-width="0.5" opacity="0.9"/><path aria-label="Média de Gols em Casa: 1.57894736842; Média de Gols Fora: 1.26315789474; Clube: Everton; Contexto: 18/19 (Com Torcida); Média Casa: 1.58; Média Fora: 1.26" role="graphics-symbol" aria-roledescription="circle" transform="translate(157.89473684210526,223.6842105263158)" d="M5,0A5,5,0,1,1,-5,0A5,5,0,1,1,5,0" fill="#1f77b4" stroke="black" stroke-width="0.5" opacity="0.9"/><path aria-label="Média de Gols em Casa: 1.15789473684; Média de Gols Fora: 0.631578947368; Clube: Fulham; Contexto: 18/19 (Com Torcida); Média Casa: 1.16; Média Fora: 0.63" role="graphics-symbol" aria-roledescription="circle" transform="translate(115.78947368421053,286.8421052631579)" d="M5,0A5,5,0,1,1,-5,0A5,5,0,1,1,5,0" fill="#1f77b4" stroke="black" stroke-width="0.5" opacity="0.9"/><path aria-label="Média de Gols em Casa: 0.526315789474; Média de Gols Fora: 0.631578947368; Clube: Huddersfield; Contexto: 18/19 (Com Torcida); Média Casa: 0.53; Média Fora: 0.63" role="graphics-symbol" aria-roledescription="circle" transform="translate(52.63157894736842,286.8421052631579)" d="M5,0A5,5,0,1,1,-5,0A5,5,0,1,1,5,0" fill="#1f77b4" stroke="black" stroke-width="0.5" opacity="0.9"/><path aria-label="Média de Gols em Casa: 1.26315789474; Média de Gols Fora: 1.42105263158; Clube: Leicester; Contexto: 18/19 (Com Torcida); Média Casa: 1.26; Média Fora: 1.42" role="graphics-symbol" aria-roledescription="circle" transform="translate(126.3157894736842,207.89473684210526)" d="M5,0A5,5,0,1,1,-5,0A5,5,0,1,1,5,0" fill="#1f77b4" stroke="black" stroke-width="0.5" opacity="0.9"/><path aria-label="Média de Gols em Casa: 2.89473684211; Média de Gols Fora: 1.78947368421; Clube: Liverpool; Contexto: 18/19 (Com Torcida); Média Casa: 2.89; Média Fora: 1.79" role="graphics-symbol" aria-roledescription="circle" transform="translate(289.47368421052636,171.05263157894737)" d="M5,0A5,5,0,1,1,-5,0A5,5,0,1,1,5,0" fill="#1f77b4" stroke="black" stroke-width="0.5" opacity="0.9"/><path aria-label="Média de Gols em Casa: 3; Média de Gols Fora: 2; Clube: Man City; Contexto: 18/19 (Com Torcida); Média Casa: 3.00; Média Fora: 2.00" role="graphics-symbol" aria-roledescription="circle" transform="translate(300,150)" d="M5,0A5,5,0,1,1,-5,0A5,5,0,1,1,5,0" fill="#1f77b4" stroke="black" stroke-width="0.5" opacity="0.9"/><path aria-label="Média de Gols em Casa: 1.73684210526; Média de Gols Fora: 1.68421052632; Clube: Man United; Contexto: 18/19 (Com Torcida); Média Casa: 1.74; Média Fora: 1.68" role="graphics-symbol" aria-roledescription="circle" transform="translate(173.6842105263158,181.57894736842107)" d="M5,0A5,5,0,1,1,-5,0A5,5,0,1,1,5,0" fill="#1f77b4" stroke="black" stroke-width="0.5" opacity="0.9"/><path aria-label="Média de Gols em Casa: 1.26315789474; Média de Gols Fora: 0.947368421053; Clube: Newcastle; Contexto: 18/19 (Com Torcida); Média Casa: 1.26; Média Fora: 0.95" role="graphics-symbol" aria-roledescription="circle" transform="translate(126.3157894736842,255.26315789473685)" d="M5,0A5,5,0,1,1,-5,0A5,5,0,1,1,5,0" fill="#1f77b4" stroke="black" stroke-width="0.5" opacity="0.9"/><path aria-label="Média de Gols em Casa: 1.42105263158; Média de Gols Fora: 0.947368421053; Clube: Southampton; Contexto: 18/19 (Com Torcida); Média Casa: 1.42; Média Fora: 0.95" role="graphics-symbol" aria-roledescription="circle" transform="translate(142.10526315789474,255.26315789473685)" d="M5,0A5,5,0,1,1,-5,0A5,5,0,1,1,5,0" fill="#1f77b4" stroke="black" stroke-width="0.5" opacity="0.9"/><path aria-label="Média de Gols em Casa: 1.78947368421; Média de Gols Fora: 1.73684210526; Clube: Tottenham; Contexto: 18/19 (Com Torcida); Média Casa: 1.79; Média Fora: 1.74" role="graphics-symbol" aria-roledescription="circle" transform="translate(178.94736842105263,176.3157894736842)" d="M5,0A5,5,0,1,1,-5,0A5,5,0,1,1,5,0" fill="#1f77b4" stroke="black" stroke-width="0.5" opacity="0.9"/><path aria-label="Média de Gols em Casa: 1.36842105263; Média de Gols Fora: 1.36842105263; Clube: Watford; Contexto: 18/19 (Com Torcida); Média Casa: 1.37; Média Fora: 1.37" role="graphics-symbol" aria-roledescription="circle" transform="translate(136.84210526315792,213.1578947368421)" d="M5,0A5,5,0,1,1,-5,0A5,5,0,1,1,5,0" fill="#1f77b4" stroke="black" stroke-width="0.5" opacity="0.9"/><path aria-label="Média de Gols em Casa: 1.68421052632; Média de Gols Fora: 1.05263157895; Clube: West Ham; Contexto: 18/19 (Com Torcida); Média Casa: 1.68; Média Fora: 1.05" role="graphics-symbol" aria-roledescription="circle" transform="translate(168.42105263157893,244.73684210526315)" d="M5,0A5,5,0,1,1,-5,0A5,5,0,1,1,5,0" fill="#1f77b4" stroke="black" stroke-width="0.5" opacity="0.9"/><path aria-label="Média de Gols em Casa: 1.47368421053; Média de Gols Fora: 1; Clube: Wolves; Contexto: 18/19 (Com Torcida); Média Casa: 1.47; Média Fora: 1.00" role="graphics-symbol" aria-roledescription="circle" transform="translate(147.36842105263156,250)" d="M5,0A5,5,0,1,1,-5,0A5,5,0,1,1,5,0" fill="#1f77b4" stroke="black" stroke-width="0.5" opacity="0.9"/></g><g class="mark-line role-mark concat_0_layer_1_marks" role="graphics-object" aria-roledescription="line mark container" pointer-events="none"><path aria-label="x: 0; y: 0" role="graphics-symbol" aria-roledescription="line mark" d="M0,350L350,0" stroke="red" stroke-width="2" stroke-dasharray="5,5" opacity="0.5"/></g><g class="mark-group role-title"><g transform="translate(175,-23)"><path class="background" aria-hidden="true" d="M0,0h0v0h0Z" pointer-events="none"/><g><g class="mark-text role-title-text" role="graphics-symbol" aria-roledescription="title" aria-label="Title text '18/19 (Com Torcida)'" pointer-events="none"><text text-anchor="middle" transform="translate(0,11)" font-family="sans-serif" font-size="14px" font-weight="bold" fill="#000" opacity="1">18/19 (Com Torcida)</text></g></g><path class="foreground" aria-hidden="true" d="" pointer-events="none" display="none"/></g></g></g><path class="foreground" aria-hidden="true" d="" display="none"/></g></g><g class="mark-group role-scope concat_1_group" role="graphics-object" aria-roledescription="group mark container"><g transform="translate(410,0)"><path class="background" aria-hidden="true" d="M0.5,0.5h350v350h-350Z"/><g><g class="mark-group role-axis" aria-hidden="true"><g transform="translate(0.5,350.5)"><path class="background" aria-hidden="true" d="M0,0h0v0h0Z" pointer-events="none"/><g><g class="mark-rule role-axis-grid" pointer-events="none"><line transform="translate(0,-350)" x2="0" y2="350" stroke="#ddd" stroke-width="1" opacity="1"/><line transform="translate(50,-350)" x2="0" y2="350" stroke="#ddd" stroke-width="1" opacity="1"/><line transform="translate(100,-350)" x2="0" y2="350" stroke="#ddd" stroke-width="1" opacity="1"/><line transform="translate(150,-350)" x2="0" y2="350" stroke="#ddd" stroke-width="1" opacity="1"/><line transform="translate(200,-350)" x2="0" y2="350" stroke="#ddd" stroke-width="1" opacity="1"/><line transform="translate(250,-350)" x2="0" y2="350" stroke="#ddd" stroke-width="1" opacity="1"/><line transform="translate(300,-350)" x2="0" y2="350" stroke="#ddd" stroke-width="1" opacity="1"/><line transform="translate(350,-350)" x2="0" y2="350" stroke="#ddd" stroke-width="1" opacity="1"/></g></g><path class="foreground" aria-hidden="true" d="" pointer-events="none" display="none"/></g></g><g class="mark-group role-axis" aria-hidden="true"><g transform="translate(0.5,0.5)"><path class="background" aria-hidden="true" d="M0,0h0v0h0Z" pointer-events="none"/><g><g class="mark-rule role-axis-grid" pointer-events="none"><line transform="translate(0,350)" x2="350" y2="0" stroke="#ddd" stroke-width="1" opacity="1"/><line transform="translate(0,300)" x2="350" y2="0" stroke="#ddd" stroke-width="1" opacity="1"/><line transform="translate(0,250)" x2="350" y2="0" stroke="#ddd" stroke-width="1" opacity="1"/><line transform="translate(0,200)" x2="350" y2="0" stroke="#ddd" stroke-width="1" opacity="1"/><line transform="translate(0,150)" x2="350" y2="0" stroke="#ddd" stroke-width="1" opacity="1"/><line transform="translate(0,100)" x2="350" y2="0" stroke="#ddd" stroke-width="1" opacity="1"/><line transform="translate(0,50)" x2="350" y2="0" stroke="#ddd" stroke-width="1" opacity="1"/><line transform="translate(0,0)" x2="350" y2="0" stroke="#ddd" stroke-width="1" opacity="1"/></g></g><path class="foreground" aria-hidden="true" d="" pointer-events="none" display="none"/></g></g><g class="mark-group role-axis" role="graphics-symbol" aria-roledescription="axis" aria-label="X-axis titled 'Média de Gols em Casa' for a linear scale with values from 0.0 to 3.5"><g transform="translate(0.5,350.5)"><path class="background" aria-hidden="true" d="M0,0h0v0h0Z" pointer-events="none"/><g><g class="mark-rule role-axis-tick" pointer-events="none"><line transform="translate(0,0)" x2="0" y2="5" stroke="#888" stroke-width="1" opacity="1"/><line transform="translate(50,0)" x2="0" y2="5" stroke="#888" stroke-width="1" opacity="1"/><line transform="translate(100,0)" x2="0" y2="5" stroke="#888" stroke-width="1" opacity="1"/><line transform="translate(150,0)" x2="0" y2="5" stroke="#888" stroke-width="1" opacity="1"/><line transform="translate(200,0)" x2="0" y2="5" stroke="#888" stroke-width="1" opacity="1"/><line transform="translate(250,0)" x2="0" y2="5" stroke="#888" stroke-width="1" opacity="1"/><line transform="translate(300,0)" x2="0" y2="5" stroke="#888" stroke-width="1" opacity="1"/><line transform="translate(350,0)" x2="0" y2="5" stroke="#888" stroke-width="1" opacity="1"/></g><g class="mark-text role-axis-label" pointer-events="none"><text text-anchor="start" transform="translate(0,15)" font-family="sans-serif" font-size="10px" fill="#000" opacity="1">0.0</text><text text-anchor="middle" transform="translate(50,15)" font-family="sans-serif" font-size="10px" fill="#000" opacity="1">0.5</text><text text-anchor="middle" transform="translate(100,15)" font-family="sans-serif" font-size="10px" fill="#000" opacity="1">1.0</text><text text-anchor="middle" transform="translate(150,15)" font-family="sans-serif" font-size="10px" fill="#000" opacity="1">1.5</text><text text-anchor="middle" transform="translate(200,15)" font-family="sans-serif" font-size="10px" fill="#000" opacity="1">2.0</text><text text-anchor="middle" transform="translate(250,15)" font-family="sans-serif" font-size="10px" fill="#000" opacity="1">2.5</text><text text-anchor="middle" transform="translate(300,15)" font-family="sans-serif" font-size="10px" fill="#000" opacity="1">3.0</text><text text-anchor="end" transform="translate(350,15)" font-family="sans-serif" font-size="10px" fill="#000" opacity="1">3.5</text></g><g class="mark-rule role-axis-domain" pointer-events="none"><line transform="translate(0,0)" x2="350" y2="0" stroke="#888" stroke-width="1" opacity="1"/></g><g class="mark-text role-axis-title" pointer-events="none"><text text-anchor="middle" transform="translate(175,30)" font-family="sans-serif" font-size="11px" font-weight="bold" fill="#000" opacity="1">Média de Gols em Casa</text></g></g><path class="foreground" aria-hidden="true" d="" pointer-events="none" display="none"/></g></g><g class="mark-group role-axis" role="graphics-symbol" aria-roledescription="axis" aria-label="Y-axis titled 'Média de Gols Fora' for a linear scale with values from 0.0 to 3.5"><g transform="translate(0.5,0.5)"><path class="background" aria-hidden="true" d="M0,0h0v0h0Z" pointer-events="none"/><g><g class="mark-rule role-axis-tick" pointer-events="none"><line transform="translate(0,350)" x2="-5" y2="0" stroke="#888" stroke-width="1" opacity="1"/><line transform="translate(0,300)" x2="-5" y2="0" stroke="#888" stroke-width="1" opacity="1"/><line transform="translate(0,250)" x2="-5" y2="0" stroke="#888" stroke-width="1" opacity="1"/><line transform="translate(0,200)" x2="-5" y2="0" stroke="#888" stroke-width="1" opacity="1"/><line transform="translate(0,150)" x2="-5" y2="0" stroke="#888" stroke-width="1" opacity="1"/><line transform="translate(0,100)" x2="-5" y2="0" stroke="#888" stroke-width="1" opacity="1"/><line transform="translate(0,50)" x2="-5" y2="0" stroke="#888" stroke-width="1" opacity="1"/><line transform="translate(0,0)" x2="-5" y2="0" stroke="#888" stroke-width="1" opacity="1"/></g><g class="mark-text role-axis-label" pointer-events="none"><text text-anchor="end" transform="translate(-7,353)" font-family="sans-serif" font-size="10px" fill="#000" opacity="1">0.0</text><text text-anchor="end" transform="translate(-7,303)" font-family="sans-serif" font-size="10px" fill="#000" opacity="1">0.5</text><text text-anchor="end" transform="translate(-7,253)" font-family="sans-serif" font-size="10px" fill="#000" opacity="1">1.0</text><text text-anchor="end" transform="translate(-7,203)" font-family="sans-serif" font-size="10px" fill="#000" opacity="1">1.5</text><text text-anchor="end" transform="translate(-7,153)" font-family="sans-serif" font-size="10px" fill="#000" opacity="1">2.0</text><text text-anchor="end" transform="translate(-7,103)" font-family="sans-serif" font-size="10px" fill="#000" opacity="1">2.5</text><text text-anchor="end" transform="translate(-7,53.000000000000014)" font-family="sans-serif" font-size="10px" fill="#000" opacity="1">3.0</text><text text-anchor="end" transform="translate(-7,3)" font-family="sans-serif" font-size="10px" fill="#000" opacity="1">3.5</text></g><g class="mark-rule role-axis-domain" pointer-events="none"><line transform="translate(0,350)" x2="0" y2="-350" stroke="#888" stroke-width="1" opacity="1"/></g><g class="mark-text role-axis-title" pointer-events="none"><text text-anchor="middle" transform="translate(-24.9013671875,175) rotate(-90) translate(0,-2)" font-family="sans-serif" font-size="11px" font-weight="bold" fill="#000" opacity="1">Média de Gols Fora</text></g></g><path class="foreground" aria-hidden="true" d="" pointer-events="none" display="none"/></g></g><g class="mark-symbol role-mark view_a23bfdd6e936edd0_0_marks" role="graphics-object" aria-roledescription="symbol mark container"><path aria-label="Média de Gols em Casa: 1.26315789474; Média de Gols Fora: 1.63157894737; Clube: Arsenal; Contexto: 20/21 (Sem Torcida); Média Casa: 1.26; Média Fora: 1.63" role="graphics-symbol" aria-roledescription="circle" transform="translate(126.3157894736842,186.8421052631579)" d="M5,0A5,5,0,1,1,-5,0A5,5,0,1,1,5,0" fill="#ff7f0e" stroke="black" stroke-width="0.5" opacity="0.9"/><path aria-label="Média de Gols em Casa: 1.52631578947; Média de Gols Fora: 1.36842105263; Clube: Aston Villa; Contexto: 20/21 (Sem Torcida); Média Casa: 1.53; Média Fora: 1.37" role="graphics-symbol" aria-roledescription="circle" transform="translate(152.63157894736844,213.1578947368421)" d="M5,0A5,5,0,1,1,-5,0A5,5,0,1,1,5,0" fill="#ff7f0e" stroke="black" stroke-width="0.5" opacity="0.9"/><path aria-label="Média de Gols em Casa: 1.15789473684; Média de Gols Fora: 0.947368421053; Clube: Brighton; Contexto: 20/21 (Sem Torcida); Média Casa: 1.16; Média Fora: 0.95" role="graphics-symbol" aria-roledescription="circle" transform="translate(115.78947368421053,255.26315789473685)" d="M5,0A5,5,0,1,1,-5,0A5,5,0,1,1,5,0" fill="#ff7f0e" stroke="black" stroke-width="0.5" opacity="0.9"/><path aria-label="Média de Gols em Casa: 0.736842105263; Média de Gols Fora: 1; Clube: Burnley; Contexto: 20/21 (Sem Torcida); Média Casa: 0.74; Média Fora: 1.00" role="graphics-symbol" aria-roledescription="circle" transform="translate(73.68421052631578,250)" d="M5,0A5,5,0,1,1,-5,0A5,5,0,1,1,5,0" fill="#ff7f0e" stroke="black" stroke-width="0.5" opacity="0.9"/><path aria-label="Média de Gols em Casa: 1.63157894737; Média de Gols Fora: 1.42105263158; Clube: Chelsea; Contexto: 20/21 (Sem Torcida); Média Casa: 1.63; Média Fora: 1.42" role="graphics-symbol" aria-roledescription="circle" transform="translate(163.1578947368421,207.89473684210526)" d="M5,0A5,5,0,1,1,-5,0A5,5,0,1,1,5,0" fill="#ff7f0e" stroke="black" stroke-width="0.5" opacity="0.9"/><path aria-label="Média de Gols em Casa: 1.05263157895; Média de Gols Fora: 1.10526315789; Clube: Crystal Palace; Contexto: 20/21 (Sem Torcida); Média Casa: 1.05; Média Fora: 1.11" role="graphics-symbol" aria-roledescription="circle" transform="translate(105.26315789473684,239.47368421052627)" d="M5,0A5,5,0,1,1,-5,0A5,5,0,1,1,5,0" fill="#ff7f0e" stroke="black" stroke-width="0.5" opacity="0.9"/><path aria-label="Média de Gols em Casa: 1.26315789474; Média de Gols Fora: 1.21052631579; Clube: Everton; Contexto: 20/21 (Sem Torcida); Média Casa: 1.26; Média Fora: 1.21" role="graphics-symbol" aria-roledescription="circle" transform="translate(126.3157894736842,228.94736842105263)" d="M5,0A5,5,0,1,1,-5,0A5,5,0,1,1,5,0" fill="#ff7f0e" stroke="black" stroke-width="0.5" opacity="0.9"/><path aria-label="Média de Gols em Casa: 0.473684210526; Média de Gols Fora: 0.947368421053; Clube: Fulham; Contexto: 20/21 (Sem Torcida); Média Casa: 0.47; Média Fora: 0.95" role="graphics-symbol" aria-roledescription="circle" transform="translate(47.368421052631575,255.26315789473685)" d="M5,0A5,5,0,1,1,-5,0A5,5,0,1,1,5,0" fill="#ff7f0e" stroke="black" stroke-width="0.5" opacity="0.9"/><path aria-label="Média de Gols em Casa: 1.47368421053; Média de Gols Fora: 1.78947368421; Clube: Leeds; Contexto: 20/21 (Sem Torcida); Média Casa: 1.47; Média Fora: 1.79" role="graphics-symbol" aria-roledescription="circle" transform="translate(147.36842105263156,171.05263157894737)" d="M5,0A5,5,0,1,1,-5,0A5,5,0,1,1,5,0" fill="#ff7f0e" stroke="black" stroke-width="0.5" opacity="0.9"/><path aria-label="Média de Gols em Casa: 1.78947368421; Média de Gols Fora: 1.78947368421; Clube: Leicester; Contexto: 20/21 (Sem Torcida); Média Casa: 1.79; Média Fora: 1.79" role="graphics-symbol" aria-roledescription="circle" transform="translate(178.94736842105263,171.05263157894737)" d="M5,0A5,5,0,1,1,-5,0A5,5,0,1,1,5,0" fill="#ff7f0e" stroke="black" stroke-width="0.5" opacity="0.9"/><path aria-label="Média de Gols em Casa: 1.52631578947; Média de Gols Fora: 2.05263157895; Clube: Liverpool; Contexto: 20/21 (Sem Torcida); Média Casa: 1.53; Média Fora: 2.05" role="graphics-symbol" aria-roledescription="circle" transform="translate(152.63157894736844,144.73684210526312)" d="M5,0A5,5,0,1,1,-5,0A5,5,0,1,1,5,0" fill="#ff7f0e" stroke="black" stroke-width="0.5" opacity="0.9"/><path aria-label="Média de Gols em Casa: 2.26315789474; Média de Gols Fora: 2.10526315789; Clube: Man City; Contexto: 20/21 (Sem Torcida); Média Casa: 2.26; Média Fora: 2.11" role="graphics-symbol" aria-roledescription="circle" transform="translate(226.3157894736842,139.47368421052633)" d="M5,0A5,5,0,1,1,-5,0A5,5,0,1,1,5,0" fill="#ff7f0e" stroke="black" stroke-width="0.5" opacity="0.9"/><path aria-label="Média de Gols em Casa: 2; Média de Gols Fora: 1.84210526316; Clube: Man United; Contexto: 20/21 (Sem Torcida); Média Casa: 2.00; Média Fora: 1.84" role="graphics-symbol" aria-roledescription="circle" transform="translate(200,165.78947368421055)" d="M5,0A5,5,0,1,1,-5,0A5,5,0,1,1,5,0" fill="#ff7f0e" stroke="black" stroke-width="0.5" opacity="0.9"/><path aria-label="Média de Gols em Casa: 1.36842105263; Média de Gols Fora: 1.05263157895; Clube: Newcastle; Contexto: 20/21 (Sem Torcida); Média Casa: 1.37; Média Fora: 1.05" role="graphics-symbol" aria-roledescription="circle" transform="translate(136.84210526315792,244.73684210526315)" d="M5,0A5,5,0,1,1,-5,0A5,5,0,1,1,5,0" fill="#ff7f0e" stroke="black" stroke-width="0.5" opacity="0.9"/><path aria-label="Média de Gols em Casa: 0.631578947368; Média de Gols Fora: 0.421052631579; Clube: Sheffield United; Contexto: 20/21 (Sem Torcida); Média Casa: 0.63; Média Fora: 0.42" role="graphics-symbol" aria-roledescription="circle" transform="translate(63.1578947368421,307.89473684210526)" d="M5,0A5,5,0,1,1,-5,0A5,5,0,1,1,5,0" fill="#ff7f0e" stroke="black" stroke-width="0.5" opacity="0.9"/><path aria-label="Média de Gols em Casa: 1.47368421053; Média de Gols Fora: 1; Clube: Southampton; Contexto: 20/21 (Sem Torcida); Média Casa: 1.47; Média Fora: 1.00" role="graphics-symbol" aria-roledescription="circle" transform="translate(147.36842105263156,250)" d="M5,0A5,5,0,1,1,-5,0A5,5,0,1,1,5,0" fill="#ff7f0e" stroke="black" stroke-width="0.5" opacity="0.9"/><path aria-label="Média de Gols em Casa: 1.84210526316; Média de Gols Fora: 1.73684210526; Clube: Tottenham; Contexto: 20/21 (Sem Torcida); Média Casa: 1.84; Média Fora: 1.74" role="graphics-symbol" aria-roledescription="circle" transform="translate(184.21052631578945,176.3157894736842)" d="M5,0A5,5,0,1,1,-5,0A5,5,0,1,1,5,0" fill="#ff7f0e" stroke="black" stroke-width="0.5" opacity="0.9"/><path aria-label="Média de Gols em Casa: 0.789473684211; Média de Gols Fora: 1.05263157895; Clube: West Brom; Contexto: 20/21 (Sem Torcida); Média Casa: 0.79; Média Fora: 1.05" role="graphics-symbol" aria-roledescription="circle" transform="translate(78.94736842105263,244.73684210526315)" d="M5,0A5,5,0,1,1,-5,0A5,5,0,1,1,5,0" fill="#ff7f0e" stroke="black" stroke-width="0.5" opacity="0.9"/><path aria-label="Média de Gols em Casa: 1.68421052632; Média de Gols Fora: 1.57894736842; Clube: West Ham; Contexto: 20/21 (Sem Torcida); Média Casa: 1.68; Média Fora: 1.58" role="graphics-symbol" aria-roledescription="circle" transform="translate(168.42105263157893,192.10526315789474)" d="M5,0A5,5,0,1,1,-5,0A5,5,0,1,1,5,0" fill="#ff7f0e" stroke="black" stroke-width="0.5" opacity="0.9"/><path aria-label="Média de Gols em Casa: 1.10526315789; Média de Gols Fora: 0.789473684211; Clube: Wolves; Contexto: 20/21 (Sem Torcida); Média Casa: 1.11; Média Fora: 0.79" role="graphics-symbol" aria-roledescription="circle" transform="translate(110.5263157894737,271.0526315789474)" d="M5,0A5,5,0,1,1,-5,0A5,5,0,1,1,5,0" fill="#ff7f0e" stroke="black" stroke-width="0.5" opacity="0.9"/></g><g class="mark-line role-mark concat_1_layer_1_marks" role="graphics-object" aria-roledescription="line mark container" pointer-events="none"><path aria-label="x: 0; y: 0" role="graphics-symbol" aria-roledescription="line mark" d="M0,350L350,0" stroke="red" stroke-width="2" stroke-dasharray="5,5" opacity="0.5"/></g><g class="mark-group role-title"><g transform="translate(175,-23)"><path class="background" aria-hidden="true" d="M0,0h0v0h0Z" pointer-events="none"/><g><g class="mark-text role-title-text" role="graphics-symbol" aria-roledescription="title" aria-label="Title text '20/21 (Sem Torcida)'" pointer-events="none"><text text-anchor="middle" transform="translate(0,11)" font-family="sans-serif" font-size="14px" font-weight="bold" fill="#000" opacity="1">20/21 (Sem Torcida)</text></g></g><path class="foreground" aria-hidden="true" d="" pointer-events="none" display="none"/></g></g></g><path class="foreground" aria-hidden="true" d="" display="none"/></g></g><g class="mark-group role-title"><g transform="translate(363.04931640625,-48)"><path class="background" aria-hidden="true" d="M0,0h0v0h0Z" pointer-events="none"/><g><g class="mark-text role-title-text" role="graphics-symbol" aria-roledescription="title" aria-label="Title text 'Dispersão: Ataque em Casa vs. Fora'" pointer-events="none"><text text-anchor="middle" transform="translate(0,1)" font-family="sans-serif" font-size="20px" font-weight="bold" fill="#000" opacity="1">Dispersão: Ataque em Casa vs. Fora</text></g></g><path class="foreground" aria-hidden="true" d="" pointer-events="none" display="none"/></g></g></g><path class="foreground" aria-hidden="true" d="" display="none"/></g></g></g></svg>